<?xml version="1.0" standalone="no"?>
<!DOCTYPE svg PUBLIC "-//W3C//DTD SVG 20010904//EN"
 "http://www.w3.org/TR/2001/REC-SVG-20010904/DTD/svg10.dtd">
<svg version="1.0" xmlns="http://www.w3.org/2000/svg"
 width="512.000000pt" height="512.000000pt" viewBox="0 0 512.000000 512.000000"
 preserveAspectRatio="xMidYMid meet">
<metadata>
Created by potrace 1.14, written by Peter Selinger 2001-2017
</metadata>
<g transform="translate(0.000000,512.000000) scale(0.100000,-0.100000)"
fill="#000000" stroke="none">
<path d="M3123 4863 c-24 -8 -63 -35 -90 -62 -145 -144 -183 -435 -83 -637 53
-108 118 -157 211 -158 92 0 172 62 229 179 43 87 61 168 61 271 1 132 -27
230 -89 317 -61 86 -151 119 -239 90z"/>
<path d="M4010 4683 c-145 -49 -277 -235 -306 -430 -27 -179 24 -331 127 -380
145 -69 330 59 420 290 34 88 39 111 44 203 13 226 -119 373 -285 317z"/>
<path d="M2413 4349 c-255 -126 -282 -671 -40 -823 37 -23 116 -31 160 -17 86
29 181 162 213 298 15 64 20 185 11 248 -35 232 -194 368 -344 294z"/>
<path d="M4348 3974 c-201 -70 -357 -395 -303 -628 54 -232 259 -272 430 -83
173 191 213 521 80 661 -54 58 -133 77 -207 50z"/>
<path d="M3331 3828 c-118 -18 -199 -74 -287 -200 -72 -103 -107 -142 -164
-182 -67 -46 -86 -55 -182 -80 -100 -27 -158 -58 -212 -113 -106 -108 -141
-268 -90 -411 25 -71 96 -156 165 -199 114 -70 229 -74 452 -17 214 55 238 49
440 -96 60 -44 139 -94 175 -112 62 -31 74 -33 167 -33 92 0 105 3 167 33 165
80 254 263 213 437 -25 106 -73 176 -171 249 -104 78 -175 199 -213 361 -37
158 -92 244 -195 309 -79 50 -169 69 -265 54z"/>
<path d="M1475 2487 c-93 -53 -153 -185 -158 -352 -3 -81 36 -223 78 -287 52
-78 126 -128 190 -128 176 0 290 290 214 544 -59 197 -199 294 -324 223z"/>
<path d="M696 2340 c-16 -5 -46 -26 -67 -46 -84 -82 -98 -267 -32 -434 79
-198 246 -316 370 -260 179 80 172 433 -11 637 -80 89 -180 129 -260 103z"/>
<path d="M2155 2053 c-130 -26 -219 -192 -211 -398 4 -95 17 -149 58 -230 105
-210 310 -210 403 0 48 107 57 235 26 358 -23 89 -41 127 -88 185 -50 61 -128
96 -188 85z"/>
<path d="M371 1688 c-137 -68 -164 -301 -59 -515 103 -213 295 -293 409 -172
64 68 86 209 54 346 -57 240 -260 412 -404 341z"/>
<path d="M1258 1549 c-91 -33 -157 -89 -198 -170 -11 -21 -31 -82 -45 -136
-46 -176 -73 -218 -255 -388 -174 -164 -124 -458 96 -566 52 -26 80 -33 137
-35 114 -3 167 19 337 142 164 119 198 127 365 84 181 -46 257 -52 346 -27
100 29 178 100 226 204 38 81 38 194 0 276 -43 94 -141 182 -226 203 -9 2 -35
8 -59 14 -107 26 -220 115 -295 231 -19 30 -47 67 -63 83 -94 94 -241 128
-366 85z"/>
</g>
</svg>
